<?xml version="1.0" encoding="UTF-8" standalone="no"?>
<!-- Created with Inkscape (http://www.inkscape.org/) -->

<svg
   xmlns:dc="http://purl.org/dc/elements/1.1/"
   xmlns:cc="http://creativecommons.org/ns#"
   xmlns:rdf="http://www.w3.org/1999/02/22-rdf-syntax-ns#"
   xmlns:svg="http://www.w3.org/2000/svg"
   xmlns="http://www.w3.org/2000/svg"
   xmlns:sodipodi="http://sodipodi.sourceforge.net/DTD/sodipodi-0.dtd"
   xmlns:inkscape="http://www.inkscape.org/namespaces/inkscape"
   width="20"
   height="20"
   id="svg4384"
   version="1.1"
   inkscape:version="0.48.2 r9819"
   sodipodi:docname="geospatial.svg">
  <defs
     id="defs4386" />
  <sodipodi:namedview
     id="base"
     pagecolor="#ffffff"
     bordercolor="#666666"
     borderopacity="1.0"
     inkscape:pageopacity="0.0"
     inkscape:pageshadow="2"
     inkscape:zoom="20"
     inkscape:cx="11.1"
     inkscape:cy="16.428973"
     inkscape:current-layer="layer1"
     showgrid="true"
     inkscape:grid-bbox="true"
     inkscape:document-units="px"
     inkscape:window-width="1920"
     inkscape:window-height="1152"
     inkscape:window-x="0"
     inkscape:window-y="0"
     inkscape:window-maximized="1" />
  <metadata
     id="metadata4389">
    <rdf:RDF>
      <cc:Work
         rdf:about="">
        <dc:format>image/svg+xml</dc:format>
        <dc:type
           rdf:resource="http://purl.org/dc/dcmitype/StillImage" />
        <dc:title />
      </cc:Work>
    </rdf:RDF>
  </metadata>
  <g
     id="layer1"
     inkscape:label="Layer 1"
     inkscape:groupmode="layer"
     transform="translate(0,-12)">
    <path
       style="fill:#000000;fill-opacity:1;stroke:none"
       d="m 4.8790602,20.285584 c -1.3211394,0 -2.3855832,1.10592 -2.3855832,2.485555 0,1.379633 2.0920994,5.440765 2.4829542,5.440082 0.3908522,-6.75e-4 2.2882121,-4.060449 2.2882121,-5.440082 0,-1.379635 -1.0644466,-2.485555 -2.3855831,-2.485555 z m 0,1.03174 c 0.8948381,0 1.6553027,0.696979 1.6553027,1.547609 0,0.850633 -0.7604646,1.547609 -1.6553027,1.547609 -0.8948383,0 -1.6066173,-0.696976 -1.6066173,-1.547609 0,-0.85063 0.711779,-1.547609 1.6066173,-1.547609 z"
       id="path4396"
       inkscape:connector-curvature="0" />
    <path
       inkscape:connector-curvature="0"
       id="path4916"
       d="m 9.6654706,13.597886 c -1.3211399,0 -2.3855834,1.105921 -2.3855834,2.485555 0,1.379633 2.0920996,5.440764 2.4829541,5.440081 0.3908517,-6.75e-4 2.2882127,-4.060448 2.2882127,-5.440081 0,-1.379634 -1.064447,-2.485555 -2.3855834,-2.485555 z m 0,1.03174 c 0.8948374,0 1.6553024,0.696978 1.6553024,1.547609 0,0.850633 -0.760465,1.547609 -1.6553024,1.547609 -0.8948382,0 -1.6066176,-0.696976 -1.6066176,-1.547609 0,-0.850631 0.7117794,-1.547609 1.6066176,-1.547609 z"
       style="fill:#000000;fill-opacity:1;stroke:none" />
    <path
       style="fill:#000000;fill-opacity:1;stroke:none"
       d="m 15.275679,20.131711 c -1.32114,0 -2.385584,1.10592 -2.385584,2.485554 0,1.379634 2.0921,5.440766 2.482954,5.440082 0.390852,-6.75e-4 2.288212,-4.060448 2.288212,-5.440082 0,-1.379634 -1.064447,-2.485554 -2.385582,-2.485554 z m 0,1.03174 c 0.894838,0 1.655302,0.696978 1.655302,1.547609 0,0.850633 -0.760464,1.547609 -1.655302,1.547609 -0.894839,0 -1.606619,-0.696976 -1.606619,-1.547609 0,-0.850631 0.71178,-1.547609 1.606619,-1.547609 z"
       id="path4918"
       inkscape:connector-curvature="0" />
    <path
       style="fill:none;stroke:#000000;stroke-width:1px;stroke-linecap:butt;stroke-linejoin:round;stroke-opacity:1"
       d="M 0.76412479,18.733283 C 1.3611603,17.04183 5.0698723,16.19632 4.29418,14.810747 3.2967758,13.02914 6.4488208,13.525616 7.5567551,13.187277 8.6646895,12.84894 9.7855952,12.697062 10.89716,12.682572 c 1.045798,-0.01364 2.433101,-0.663511 3.151188,0.187524 0.868227,1.028977 2.078612,0.743423 3.070853,1.491807 0.654521,0.493663 2.275831,1.873127 1.803121,2.300726 -1.795394,1.624055 1.159617,6.023317 0.558714,8.570209 -0.596063,2.526375 -2.270592,2.528777 -3.428471,3.681165 -0.886529,0.882322 -1.50806,2.365225 -2.691985,2.473279 -0.788027,0.07193 -1.26825,-1.078407 -2.031686,-1.297272 -0.70276,-0.201469 -1.4635049,0.142418 -2.1840622,0.03188 C 8.2761908,29.988623 7.5023511,29.185489 6.6306194,29.293813 5.7703213,29.400717 5.2262511,30.957599 4.3957642,30.697067 2.7101569,30.168275 2.8035754,27.440079 2.0593249,25.692987 1.6678467,24.774009 1.1666232,23.988227 0.94189739,22.817075 0.70117512,21.562563 0.31353611,20.00984 0.76412479,18.733285 z"
       id="path5007"
       inkscape:connector-curvature="0"
       sodipodi:nodetypes="assssssaaaaaaaaaa" />
  </g>
</svg>
