<?xml version="1.0" encoding="UTF-8" standalone="no"?>
<!-- Created with Inkscape (http://www.inkscape.org/) -->

<svg
   xmlns:dc="http://purl.org/dc/elements/1.1/"
   xmlns:cc="http://creativecommons.org/ns#"
   xmlns:rdf="http://www.w3.org/1999/02/22-rdf-syntax-ns#"
   xmlns:svg="http://www.w3.org/2000/svg"
   xmlns="http://www.w3.org/2000/svg"
   xmlns:sodipodi="http://sodipodi.sourceforge.net/DTD/sodipodi-0.dtd"
   xmlns:inkscape="http://www.inkscape.org/namespaces/inkscape"
   width="20"
   height="20"
   id="svg6163"
   version="1.1"
   inkscape:version="0.48.2 r9819"
   sodipodi:docname="line-plot.svg">
  <defs
     id="defs6165" />
  <sodipodi:namedview
     id="base"
     pagecolor="#ffffff"
     bordercolor="#666666"
     borderopacity="1.0"
     inkscape:pageopacity="0.0"
     inkscape:pageshadow="2"
     inkscape:zoom="20"
     inkscape:cx="15.1"
     inkscape:cy="12"
     inkscape:current-layer="layer1"
     showgrid="true"
     inkscape:grid-bbox="true"
     inkscape:document-units="px"
     inkscape:window-width="1920"
     inkscape:window-height="1152"
     inkscape:window-x="0"
     inkscape:window-y="0"
     inkscape:window-maximized="1" />
  <metadata
     id="metadata6168">
    <rdf:RDF>
      <cc:Work
         rdf:about="">
        <dc:format>image/svg+xml</dc:format>
        <dc:type
           rdf:resource="http://purl.org/dc/dcmitype/StillImage" />
        <dc:title></dc:title>
      </cc:Work>
    </rdf:RDF>
  </metadata>
  <g
     id="layer1"
     inkscape:label="Layer 1"
     inkscape:groupmode="layer"
     transform="translate(0,-12)">
    <path
       style="fill:none;stroke:#000000;stroke-width:0.99999994px;stroke-linecap:butt;stroke-linejoin:round;stroke-opacity:1"
       d="m 0.9071895,23.149126 c 0,0 1.6216354,-9.109692 2.2860392,-8.915696 0.6644037,0.193993 0.4796861,15.568236 1.1941995,15.63477 0.7145134,0.06653 1.636342,-13.626944 2.2860388,-13.481221 0.6496976,0.145722 0.2129613,7.673789 0.8188802,7.881992 0.605919,0.208203 1.7933988,-9.866105 2.2437578,-9.90633 0.45036,-0.04022 0.975961,5.375824 1.312441,5.392687 0.336478,0.01687 1.351713,-7.089477 2.005359,-6.900171 0.653645,0.189306 0.794135,17.560367 1.398919,17.74525 0.604784,0.184882 1.406,-9.870187 1.406,-9.870187"
       id="path6175"
       inkscape:connector-curvature="0"
       sodipodi:nodetypes="czzzzzzzzc" />
    <path
       style="fill:none;stroke:#000000;stroke-width:1px;stroke-linecap:butt;stroke-linejoin:miter;stroke-opacity:1"
       d="m 0.1,22.958897 18.247897,0"
       id="path6685"
       inkscape:connector-curvature="0" />
    <path
       sodipodi:type="star"
       style="fill:#000000;fill-opacity:1;stroke:none"
       id="path6687"
       sodipodi:sides="3"
       sodipodi:cx="8.3000002"
       sodipodi:cy="-0.34999999"
       sodipodi:r1="1.6"
       sodipodi:r2="0.80000001"
       sodipodi:arg1="0"
       sodipodi:arg2="1.0471976"
       inkscape:flatsided="false"
       inkscape:rounded="0"
       inkscape:randomized="0"
       d="m 9.9000002,-0.34999999 -1.2,0.69282035 -1.2,0.69282034 0,-1.38564073 0,-1.38564067 1.2,0.6928204 z"
       transform="matrix(1.1505992,0,0,1.5901543,8.6339053,23.540451)"
       inkscape:transform-center-x="-0.46024023" />
  </g>
</svg>
